<?xml version="1.0" ?><svg id="레이어_1" style="enable-background:new 0 0 40 40;" version="1.1" viewBox="0 0 40 40" xml:space="preserve" xmlns="http://www.w3.org/2000/svg" xmlns:xlink="http://www.w3.org/1999/xlink"><path d="M19.32,16.22l2.92,3.16h0.05l0,0c0.18,0.18,0.42,0.28,0.68,0.28c0.25-0.01,0.48-0.1,0.66-0.27l6-5.84  c0.4-0.34,0.45-0.94,0.11-1.34s-0.94-0.45-1.34-0.11c-0.03,0.03-0.07,0.06-0.1,0.09L23,17.41l-2.3-2.48c-0.37-0.37-0.96-0.37-1.33,0  c0,0,0,0,0,0C19.04,15.29,19.02,15.84,19.32,16.22z"/><path d="M13.02,25.97h0.77c0.47,0,0.47,0,0.76,0h19.47c0.9,0,1.63-0.71,1.67-1.61l2.33-15.33V8.89c0-0.93-0.75-1.68-1.68-1.69H9.18  L7.54,1.71H3.02C2.5,1.66,2.04,2.04,1.98,2.56C1.93,3.08,2.31,3.55,2.83,3.6c0.06,0.01,0.13,0.01,0.19,0h3.11l6.16,20.56  c-2.24,0.38-3.75,2.51-3.37,4.75c0.29,1.7,1.6,3.04,3.29,3.36c-0.4,0.62-0.62,1.33-0.62,2.07c-0.03,2.15,1.7,3.92,3.85,3.95  c2.15,0.03,3.92-1.7,3.95-3.85c0.01-0.74-0.19-1.46-0.58-2.09h10.72c-1.1,1.84-0.5,4.22,1.34,5.32c1.84,1.1,4.22,0.5,5.32-1.34  c1.1-1.84,0.5-4.22-1.34-5.32c-0.6-0.36-1.3-0.55-2-0.55H13.02c-1.24,0-2.24-1-2.24-2.24S11.79,25.97,13.02,25.97z M36.08,9.09  l-2.28,15H14.24l-4.49-15L36.08,9.09z M17.48,34.34c0,1.1-0.9,2-2,2s-2-0.9-2-2s0.9-2,2-2S17.48,33.24,17.48,34.34z M34.85,34.34  c0,1.1-0.9,2-2,2c-1.1,0-2-0.9-2-2s0.9-2,2-2C33.96,32.34,34.85,33.24,34.85,34.34z"/></svg>