<?xml version="1.0" ?><svg xmlns="http://www.w3.org/2000/svg" viewBox="0 0 32 32"><g id="_15_message-chat-square" data-name="15 message-chat-square"><path d="M26.33,3H9.67A2.68,2.68,0,0,0,7,5.63v5.29H5.33A2.34,2.34,0,0,0,3,13.25v10a2.34,2.34,0,0,0,2.33,2.34h1v1.68a1.33,1.33,0,0,0,.73,1.19,1.31,1.31,0,0,0,.61.15,1.36,1.36,0,0,0,.77-.25l3.88-2.77h6.35A2.34,2.34,0,0,0,21,23.25v-.08l1.59,1.13a1.41,1.41,0,0,0,.82.27,1.36,1.36,0,0,0,.65-.16,1.4,1.4,0,0,0,.77-1.26V20.79h1.5A2.67,2.67,0,0,0,29,18.13V5.63A2.68,2.68,0,0,0,26.33,3ZM19,23.25a.34.34,0,0,1-.33.34h-7L8.33,26V23.59h-3A.34.34,0,0,1,5,23.25v-10a.33.33,0,0,1,.33-.33H18.67a.33.33,0,0,1,.33.33Zm8-5.12a.67.67,0,0,1-.67.66h-3.5V22L21,20.71V13.25a2.34,2.34,0,0,0-2.33-2.33H9V5.63A.67.67,0,0,1,9.67,5H26.33a.67.67,0,0,1,.67.67Z"/></g></svg>