<?xml version="1.0" ?><svg id="Capa_1" style="enable-background:new 0 0 512 512;" version="1.1" viewBox="0 0 512 512" xml:space="preserve" xmlns="http://www.w3.org/2000/svg" xmlns:xlink="http://www.w3.org/1999/xlink"><g><g><g><path d="M507.857,227.896L397.19,147.894c-3.043-2.201-7.065-2.509-10.41-0.801c-3.344,1.71-5.449,5.149-5.449,8.905v60.433     l-94.807-68.537c-3.043-2.201-7.064-2.509-10.408-0.801c-3.346,1.71-5.449,5.149-5.449,8.905v60.433l-94.809-68.537     c-3.043-2.201-7.064-2.509-10.41-0.801c-3.344,1.71-5.449,5.149-5.449,8.905v70.001h-20.666L126.184,35.313     c-0.363-5.244-4.721-9.313-9.977-9.313H63.793c-5.256,0-9.613,4.068-9.977,9.313L40.666,226H10c-5.523,0-10,4.477-10,10v240     c0,5.522,4.477,10,10,10h492c5.522,0,10-4.478,10-10V236C512,232.789,510.459,229.775,507.857,227.896z M62.094,205.999h21.34     c5.521,0,10-4.478,10-10c0-5.523-4.479-10-10-10H63.473l9.654-139.998h33.746l12.412,179.998h-58.57L62.094,205.999z      M159.998,266.001h-55.689c-5.521,0-10,4.478-10,10c0,5.522,4.479,10,10,10h55.689V306h-55.689c-5.521,0-10,4.478-10,10     c0,5.523,4.479,10,10,10h55.689v20h-26.725c-5.521,0-10,4.478-10,10c0,5.523,4.479,10,10,10h26.725v19.999h-55.689     c-5.521,0-10,4.478-10,10c0,5.522,4.479,10,10,10h55.689v19.998h-55.689c-5.521,0-10,4.478-10,10c0,5.523,4.479,10,10,10h55.689     v20.002H20v-220h29.963c0.012,0,0.025,0.002,0.037,0.002h79.998c0.008,0.001,0.016,0.001,0.02,0c0.014,0,0.025-0.002,0.039-0.002     h29.941V266.001z M492,465.999H179.998v-230v-60.433l94.809,68.537c3.043,2.201,7.064,2.512,10.41,0.8     c3.344-1.709,5.449-5.148,5.449-8.904v-60.433l94.807,68.536c3.043,2.202,7.064,2.51,10.408,0.801     c3.346-1.709,5.449-5.148,5.449-8.904v-60.433L492,241.109V465.999z"/><path d="M104.309,366h0.236c5.523,0,10-4.477,10-10c0-5.522-4.477-10-10-10h-0.236c-5.521,0-10,4.478-10,10     C94.309,361.522,98.787,366,104.309,366z"/><path d="M295.998,305.998h-40.002c-5.523,0-10,4.478-10,10v39.998c0,5.522,4.477,10,10,10h40.002c5.522,0,10-4.478,10-10v-39.998     C305.998,310.477,301.52,305.998,295.998,305.998z M285.998,345.996h-20.002v-19.998h20.002V345.996z"/><path d="M365.998,315.998v39.998c0,5.522,4.479,10,10,10H416c5.523,0,10-4.478,10-10v-39.998c0-5.522-4.477-10-10-10h-40.002     C370.477,305.998,365.998,310.477,365.998,315.998z M385.998,325.998H406v19.998h-20.002V325.998z"/><path d="M321.69,425.997h-0.236c-5.521,0-10,4.478-10,10c0,5.523,4.479,10,10,10h0.236c5.523,0,10-4.477,10-10     C331.69,430.475,327.213,425.997,321.69,425.997z"/><path d="M292.723,425.997h-36.725c-5.523,0-10,4.478-10,10c0,5.523,4.477,10,10,10h36.725c5.521,0,10-4.477,10-10     C302.723,430.475,298.244,425.997,292.723,425.997z"/></g></g></g><g/><g/><g/><g/><g/><g/><g/><g/><g/><g/><g/><g/><g/><g/><g/></svg>