<svg width="19" height="17" viewBox="0 0 19 17" fill="none" xmlns="http://www.w3.org/2000/svg">
<path d="M14.25 5.66666C14.25 4.53949 13.7496 3.45848 12.8588 2.66145C11.968 1.86442 10.7598 1.41666 9.5 1.41666C8.24022 1.41666 7.03204 1.86442 6.14124 2.66145C5.25045 3.45848 4.75 4.53949 4.75 5.66666C4.75 10.625 2.375 12.0417 2.375 12.0417H16.625C16.625 12.0417 14.25 10.625 14.25 5.66666Z" stroke="#FFFDFD" stroke-width="2" stroke-linecap="round" stroke-linejoin="round"/>
<path d="M10.8696 14.875C10.7304 15.0897 10.5306 15.2679 10.2903 15.3918C10.0499 15.5156 9.7774 15.5808 9.50001 15.5808C9.22263 15.5808 8.95012 15.5156 8.70975 15.3918C8.46939 15.2679 8.26962 15.0897 8.13043 14.875" stroke="#FFFDFD" stroke-width="2" stroke-linecap="round" stroke-linejoin="round"/>
</svg>
