<?xml version="1.0" ?><svg xmlns="http://www.w3.org/2000/svg" xmlns:xlink="http://www.w3.org/1999/xlink" version="1.1" viewBox="0 0 512 512" style="enable-background:new 0 0 512 512;" xml:space="preserve"><g id="_x34_5_Coupon_x2C__Commerce_and_Shopping_x2C__Promo_x2C__Offer_x2C__Season"><g><path style="fill:#ECE6F2;" d="M501,141v230c0,16.57-13.43,30-30,30H314.26c-5.62-11.82-17.67-20-31.63-20s-26.01,8.18-31.63,20    c-11.99,0-201.712,0-210,0c-16.57,0-30-13.43-30-30V141c0-16.672,13.561-30,30-30c5.64,0,202.92,0,210,0    c5.62,11.82,17.67,20,31.63,20s26.01-8.18,31.63-20H471C487.57,111,501,124.43,501,141z"/><path style="fill:#F4D944;" d="M213.5,233.5c13.76,0,24.62,12.34,22.15,26.54c-1.94,11.16-12.15,19.07-23.45,18.42    c-0.06,0-0.12,0-0.17,0c-3.595-0.238-4.781,4.786-2.39,9.36c8.79,8.79,8.79,23.04,0,31.82c-8.78,8.79-23.03,8.79-31.82,0    l-0.03-0.03c-3.298-3.329-9.29-1.263-9.29,3.79v0.1c0,13.36-11.64,24-25.34,22.33c-10.897-1.335-19.66-10.752-19.66-22.53    c-1.07-6.154-6.614-6.379-9.28-3.7l-0.04,0.04c-8.78,8.79-23.03,8.79-31.82,0c-8.79-8.78-8.79-23.03,0-31.82l0.03-0.03    c2.59-2.565,2.702-8.161-3.89-9.29c-13.75,0-24.62-12.34-22.15-26.54c1.87-10.73,11.39-18.46,22.16-18.46    c5.96,0,6.786-6.403,3.85-9.32c-8.661-8.661-8.914-22.827,0-31.82c8.79-8.79,23.04-8.79,31.82,0c0.01,0.01,0.01,0.02,0.03,0.03    c3.214,3.235,7.448,2.336,9.29-3.89c0-13.75,12.33-24.62,26.54-22.15c11.16,1.95,19.07,12.15,18.42,23.45c0,0.06,0,0.12,0,0.17    c-0.226,3.41,4.568,4.906,9.36,2.39c8.79-8.79,23.04-8.79,31.82,0c8.947,9.026,8.641,23.191,0,31.82    c-3.548,5.376-0.157,9.32,3.76,9.32H213.5z"/><circle style="fill:#ECB43E;" cx="146" cy="256" r="22.5"/><g><path d="M146.001,223.501c-17.921,0-32.5,14.579-32.5,32.5s14.579,32.5,32.5,32.5s32.5-14.579,32.5-32.5     S163.922,223.501,146.001,223.501z M146.001,268.501c-6.893,0-12.5-5.607-12.5-12.5s5.607-12.5,12.5-12.5s12.5,5.607,12.5,12.5     S152.894,268.501,146.001,268.501z"/><path d="M221.824,224.589c6.011-10.397,5.927-23.65-0.851-34.044c-9.572-14.698-28.832-18.973-43.551-10.397     c-3.155-11.963-12.962-21.434-25.664-23.646c-16.912-2.944-32.884,7.471-37.172,23.647c-14.632-8.527-33.942-4.385-43.553,10.387     c-6.78,10.389-6.87,23.639-0.869,34.034c-12.036,3.153-21.455,12.989-23.663,25.671c-2.948,16.916,7.472,32.882,23.651,37.166     c-7.112,12.195-5.699,28.472,5.136,39.299c10.775,10.783,27.039,12.29,39.3,5.152c3.333,12.552,13.984,22.258,27.361,23.894     c16.175,1.979,31.273-8.174,35.451-23.907c12.17,7.098,28.455,5.725,39.305-5.133c10.782-10.774,12.295-27.023,5.15-39.29     c11.96-3.157,21.431-12.963,23.644-25.663C248.465,244.746,237.933,228.841,221.824,224.589z M225.797,258.326     c-0.98,5.62-6.12,10.41-13.256,10.143c-0.005,0-0.011-0.001-0.016-0.001c-12.72-0.699-19.586,16.679-10.059,26.325     c5.3,5.452,4.713,13.166,0.097,17.776c-4.88,4.886-12.788,4.884-17.666,0c-10.386-9.914-26.396-2.627-26.396,10.932     c0,7.277-6.298,13.343-14.123,12.399c-6.112-0.748-10.891-6.213-10.879-12.395c0.195-13.845-16.62-20.714-26.3-11.03     c-5.491,5.325-13.196,4.665-17.768,0.088c-4.886-4.88-4.884-12.788,0-17.666c9.804-9.804,2.979-26.396-10.931-26.396     c-7.525,0-13.711-6.709-12.296-14.828c1.003-5.762,6.318-10.47,13.19-10.143c13.182,0.455,19.51-16.948,10.035-26.427     c-4.157-4.153-4.851-10.729-1.642-15.646c4.302-6.62,13.665-7.682,19.317-2.022c0.005,0.004,0.01,0.009,0.015,0.014     c9.739,9.786,26.423,2.974,26.38-10.947c0-7.527,6.708-13.713,14.826-12.296c5.621,0.979,10.41,6.106,10.142,13.255     c0,0.005-0.001,0.011-0.001,0.017c-0.683,12.679,16.696,19.686,26.43,9.955c5.624-5.63,14.993-4.625,19.314,2.025     c0.002,0.003,0.004,0.006,0.007,0.009c3.202,4.908,2.51,11.484-1.648,15.637c-9.801,9.801-2.982,26.398,10.931,26.398     C221.006,243.501,227.214,250.188,225.797,258.326z"/><path d="M471,101H314.26c-3.859,0-7.374,2.221-9.031,5.706C301.1,115.39,292.229,121,282.63,121s-18.47-5.61-22.599-14.294     C258.374,103.221,254.859,101,251,101H41c-22.227,0-40,18.116-40,40v230c0,22.056,17.944,40,40,40h210     c3.859,0,7.374-2.221,9.031-5.706C264.16,396.61,273.03,391,282.63,391s18.47,5.61,22.599,14.294     c1.657,3.485,5.172,5.706,9.031,5.706H471c22.056,0,40-17.944,40-40V141C511,118.944,493.056,101,471,101z M491,371     c0,11.028-8.972,20-20,20H320.042c-17.877-26.619-56.942-26.626-74.824,0H41c-11.028,0-20-8.972-20-20V141     c0-10.951,8.916-20,20-20h204.218c17.878,26.619,56.942,26.626,74.824,0H471c11.028,0,20,8.972,20,20V371z"/><path d="M281,166c-5.522,0-10,4.478-10,10v10c0,5.522,4.478,10,10,10s10-4.478,10-10v-10C291,170.478,286.522,166,281,166z"/><path d="M281,216c-5.522,0-10,4.478-10,10v10c0,5.522,4.478,10,10,10s10-4.478,10-10v-10C291,220.478,286.522,216,281,216z"/><path d="M281,266c-5.522,0-10,4.478-10,10v10c0,5.522,4.478,10,10,10s10-4.478,10-10v-10C291,270.478,286.522,266,281,266z"/><path d="M281,316c-5.522,0-10,4.478-10,10v10c0,5.522,4.478,10,10,10s10-4.478,10-10v-10C291,320.478,286.522,316,281,316z"/><path d="M431.226,199.431l-98.995,98.995c-3.905,3.905-3.905,10.237,0,14.143s10.238,3.905,14.143,0l98.995-98.995     c3.905-3.905,3.905-10.237,0-14.143S435.132,195.526,431.226,199.431z"/><path d="M360.447,237.74c5.52,0,9.995-4.475,9.995-9.995c0-5.52-4.475-9.995-9.995-9.995c-5.52,0-9.995,4.475-9.995,9.995     C350.452,233.264,354.927,237.74,360.447,237.74z"/><path d="M417.083,274.309c-5.52,0-9.995,4.475-9.995,9.995c0,5.52,4.475,9.995,9.995,9.995c5.52,0,9.995-4.475,9.995-9.995     C427.078,278.784,422.603,274.309,417.083,274.309z"/></g></g></g><g id="Layer_1"/></svg>