<?xml version="1.0" encoding="UTF-8"?>
<!DOCTYPE svg PUBLIC "-//W3C//DTD SVG 1.1//EN" "http://www.w3.org/Graphics/SVG/1.1/DTD/svg11.dtd">
<!-- Creator: CorelDRAW X6 -->
<svg xmlns="http://www.w3.org/2000/svg" xml:space="preserve" width="100%" height="100%" version="1.1" style="shape-rendering:geometricPrecision; text-rendering:geometricPrecision; image-rendering:optimizeQuality; fill-rule:evenodd; clip-rule:evenodd"
viewBox="0 0 500 500"
 xmlns:xlink="http://www.w3.org/1999/xlink">
 <defs>
  <style type="text/css">
   <![CDATA[
    .fil0 {fill:#202020}
   ]]>
  </style>
 </defs>
 <g id="Layer_x0020_1">
  <metadata id="CorelCorpID_0Corel-Layer"/>
  <path class="fil0" d="M101 63l61 0 6 -11c1,-1 1,-2 3,-2l48 0c2,0 7,-3 7,-8l0 -12c0,-5 4,-10 10,-10l28 0c6,0 10,5 10,10l0 12c0,5 5,8 7,8l46 0c2,0 4,1 5,2l6 11 61 0c8,0 15,7 15,16l0 386c0,8 -7,15 -15,15l-298 0c-8,0 -15,-7 -15,-15l0 -386c0,-9 7,-16 15,-16zm88 108l182 0 0 7 -182 0 0 -7zm0 -17l148 0 0 7 -148 0 0 -7zm0 -18l161 0 0 7 -161 0 0 -7zm0 119l147 0 0 7 -147 0 0 -7zm0 -18l173 0 0 7 -173 0 0 -7zm0 -17l98 0 0 7 -98 0 0 -7zm0 118l147 0 0 7 -147 0 0 -7zm0 -17l127 0 0 7 -127 0 0 -7zm0 -18l176 0 0 7 -176 0 0 -7zm0 118l93 0 0 7 -93 0 0 -7zm0 -17l80 0 0 7 -80 0 0 -7zm0 -17l112 0 0 7 -112 0 0 -7zm-58 -251l42 0 0 42 -42 0 0 -42zm17 24l15 -14 4 4 -19 19 -11 -12 4 -4 7 7zm-17 60l42 0 0 42 -42 0 0 -42zm17 24l15 -15 4 5 -19 18 -11 -11 4 -5 7 8zm-17 59l42 0 0 42 -42 0 0 -42zm17 24l15 -14 4 4 -19 19 -11 -12 4 -4 7 7zm-17 60l42 0 0 41 -42 0 0 -41zm17 23l15 -14 4 4 -19 19 -11 -11 4 -5 7 7zm206 -298l-208 0c-1,0 -5,-2 -5,-5 -1,-3 1,-6 2,-8l10 -19 -41 0c-5,0 -9,4 -9,9l0 366c0,5 4,9 9,9l200 0 85 -85 0 -290c0,-5 -4,-9 -9,-9l-41 0 10 19c1,2 3,5 2,8 0,3 -4,5 -5,5z"/>
 </g>
</svg>
